<?xml version="1.0" encoding="utf-8"?>
<!-- Generator: Adobe Illustrator 27.5.0, SVG Export Plug-In . SVG Version: 6.00 Build 0)  -->
<svg version="1.1" id="Design" xmlns="http://www.w3.org/2000/svg" xmlns:xlink="http://www.w3.org/1999/xlink" x="0px" y="0px"
	 viewBox="0 0 288 288" style="enable-background:new 0 0 288 288;" xml:space="preserve">
<g id="XMLID_1139_">
	
		<radialGradient id="XMLID_00000124134796499716075570000010019373857612089514_" cx="142.6666" cy="119.3334" r="264.3393" gradientTransform="matrix(1 0.0034 -0.0028 0.8302 0.337 19.7801)" gradientUnits="userSpaceOnUse">
		<stop  offset="0.5561" style="stop-color:#FFFFFF"/>
		<stop  offset="1" style="stop-color:#F3F3F3"/>
	</radialGradient>
	<rect id="XMLID_5237_" style="fill:url(#XMLID_00000124134796499716075570000010019373857612089514_);" width="288" height="288"/>
	
		<radialGradient id="XMLID_00000082354283631201305460000003783527854709569925_" cx="58.7459" cy="3495.0085" r="63.8147" gradientTransform="matrix(1.4609 0 0 0.1 56.6235 -135.2287)" gradientUnits="userSpaceOnUse">
		<stop  offset="0" style="stop-color:#787878"/>
		<stop  offset="0.0672" style="stop-color:#8F8F8F"/>
		<stop  offset="0.1841" style="stop-color:#B2B2B2"/>
		<stop  offset="0.309" style="stop-color:#CECECE"/>
		<stop  offset="0.4425" style="stop-color:#E4E4E4"/>
		<stop  offset="0.5889" style="stop-color:#F3F3F3"/>
		<stop  offset="0.7575" style="stop-color:#FCFCFC"/>
		<stop  offset="1" style="stop-color:#FFFFFF"/>
	</radialGradient>
	<path id="XMLID_5236_" style="opacity:0.25;fill:url(#XMLID_00000082354283631201305460000003783527854709569925_);" d="
		M235.667,214.273c0,3.524-41.735,6.381-93.221,6.381c-51.484,0-93.221-2.857-93.221-6.381c0-3.526,41.738-6.383,93.221-6.383
		C193.932,207.89,235.667,210.747,235.667,214.273z"/>
	<g id="XMLID_1140_">
		<g id="XMLID_1141_">
			<path id="XMLID_1142_" style="fill:#429F00;" d="M89.665,236.372c-0.545,0-0.967,0.205-1.266,0.614
				c-0.299,0.41-0.448,0.98-0.448,1.712c0,1.523,0.571,2.285,1.714,2.285c0.479,0,1.061-0.12,1.743-0.36v1.215
				c-0.561,0.233-1.186,0.35-1.878,0.35c-0.994,0-1.754-0.301-2.28-0.904c-0.526-0.602-0.79-1.468-0.79-2.595
				c0-0.71,0.129-1.332,0.388-1.866c0.258-0.534,0.63-0.944,1.114-1.229c0.484-0.285,1.052-0.427,1.703-0.427
				c0.664,0,1.33,0.16,1.999,0.481l-0.467,1.177c-0.256-0.121-0.513-0.227-0.771-0.317
				C90.168,236.418,89.914,236.372,89.665,236.372z"/>
			<path id="XMLID_1144_" style="fill:#429F00;" d="M101.93,238.671c0,1.13-0.28,2-0.841,2.607
				c-0.561,0.607-1.364,0.911-2.411,0.911c-1.046,0-1.85-0.304-2.411-0.911c-0.56-0.607-0.841-1.48-0.841-2.616
				c0-1.137,0.281-2.005,0.843-2.605c0.562-0.599,1.368-0.899,2.418-0.899c1.05,0,1.853,0.302,2.408,0.906
				C101.653,236.668,101.93,237.537,101.93,238.671z M96.946,238.671c0,0.763,0.145,1.337,0.434,1.724
				c0.29,0.386,0.723,0.58,1.299,0.58c1.155,0,1.733-0.768,1.733-2.303c0-1.538-0.575-2.308-1.724-2.308
				c-0.576,0-1.011,0.194-1.303,0.582C97.092,237.332,96.946,237.908,96.946,238.671z"/>
			<path id="XMLID_1147_" style="fill:#429F00;" d="M109.108,242.096l-1.645-5.358h-0.042c0.059,1.09,0.089,1.817,0.089,2.182v3.177
				h-1.294v-6.83h1.971l1.617,5.223h0.028l1.715-5.223h1.971v6.83h-1.35v-3.233c0-0.153,0.003-0.329,0.007-0.528
				c0.005-0.199,0.026-0.729,0.063-1.588h-0.042l-1.762,5.349H109.108z"/>
			<path id="XMLID_1149_" style="fill:#429F00;" d="M122.827,237.396c0,0.735-0.229,1.297-0.689,1.687
				c-0.46,0.389-1.113,0.584-1.96,0.584h-0.621v2.429h-1.448v-6.83h2.182c0.828,0,1.458,0.178,1.89,0.535
				C122.611,236.157,122.827,236.689,122.827,237.396z M119.557,238.479h0.477c0.445,0,0.778-0.088,1-0.264
				c0.221-0.176,0.331-0.432,0.331-0.769c0-0.339-0.092-0.59-0.278-0.752c-0.185-0.162-0.476-0.243-0.871-0.243h-0.659V238.479z"/>
			<path id="XMLID_1152_" style="fill:#429F00;" d="M131.168,242.096l-0.495-1.626h-2.49l-0.495,1.626h-1.561l2.411-6.858h1.771
				l2.421,6.858H131.168z M130.327,239.255c-0.458-1.473-0.716-2.307-0.773-2.499c-0.058-0.193-0.099-0.346-0.124-0.458
				c-0.103,0.399-0.397,1.385-0.883,2.957H130.327z"/>
			<path id="XMLID_1155_" style="fill:#429F00;" d="M142.518,242.096h-1.842l-2.971-5.167h-0.042
				c0.06,0.913,0.089,1.563,0.089,1.953v3.214h-1.294v-6.83h1.827l2.966,5.116h0.032c-0.046-0.888-0.069-1.516-0.069-1.883v-3.233
				h1.304V242.096z"/>
			<path id="XMLID_1157_" style="fill:#429F00;" d="M149.233,238.078l1.425-2.813h1.56l-2.267,4.172v2.658h-1.438v-2.612
				l-2.266-4.218h1.569L149.233,238.078z"/>
			<path id="XMLID_1159_" style="fill:#429F00;" d="M167.364,242.096h-1.842l-2.971-5.167h-0.042
				c0.06,0.913,0.089,1.563,0.089,1.953v3.214h-1.294v-6.83h1.827l2.966,5.116h0.032c-0.046-0.888-0.069-1.516-0.069-1.883v-3.233
				h1.304V242.096z"/>
			<path id="XMLID_1161_" style="fill:#429F00;" d="M176.134,242.096l-0.495-1.626h-2.49l-0.495,1.626h-1.561l2.411-6.858h1.77
				l2.421,6.858H176.134z M175.294,239.255c-0.458-1.473-0.716-2.307-0.773-2.499c-0.058-0.193-0.099-0.346-0.123-0.458
				c-0.104,0.399-0.398,1.385-0.884,2.957H175.294z"/>
			<path id="XMLID_1164_" style="fill:#429F00;" d="M184.317,242.096l-1.645-5.358h-0.043c0.06,1.09,0.09,1.817,0.09,2.182v3.177
				h-1.295v-6.83h1.972l1.616,5.223h0.028l1.715-5.223h1.972v6.83h-1.351v-3.233c0-0.153,0.003-0.329,0.007-0.528
				c0.005-0.199,0.025-0.729,0.063-1.588h-0.042l-1.762,5.349H184.317z"/>
			<path id="XMLID_1166_" style="fill:#429F00;" d="M197.251,242.096h-3.934v-6.83h3.934v1.187h-2.485v1.499h2.313v1.186h-2.313
				v1.762h2.485V242.096z"/>
		</g>
	</g>
	<g id="XMLID_1168_">
		<g id="XMLID_1169_">
			<path id="XMLID_1170_" style="fill:#246608;" d="M91.711,250.333h-0.592v-2.299h-0.758v-0.492h2.108v0.492h-0.758V250.333z"/>
			<path id="XMLID_1172_" style="fill:#246608;" d="M98.517,250.333l-0.203-0.665h-1.018l-0.202,0.665h-0.638l0.985-2.803h0.723
				l0.989,2.803H98.517z M98.174,249.173c-0.187-0.602-0.293-0.942-0.316-1.022c-0.023-0.079-0.04-0.141-0.051-0.187
				c-0.042,0.163-0.162,0.565-0.361,1.209H98.174z"/>
			<path id="XMLID_1175_" style="fill:#246608;" d="M104.475,248.766h1.107v1.447c-0.179,0.059-0.348,0.1-0.507,0.123
				c-0.158,0.023-0.32,0.035-0.486,0.035c-0.421,0-0.743-0.124-0.965-0.371c-0.222-0.247-0.333-0.603-0.333-1.066
				c0-0.451,0.129-0.802,0.387-1.054c0.258-0.252,0.615-0.378,1.072-0.378c0.286,0,0.563,0.058,0.828,0.172l-0.196,0.474
				c-0.204-0.102-0.415-0.153-0.636-0.153c-0.256,0-0.461,0.086-0.615,0.258c-0.154,0.172-0.231,0.403-0.231,0.693
				c0,0.303,0.062,0.535,0.186,0.694s0.304,0.239,0.541,0.239c0.124,0,0.249-0.013,0.377-0.038v-0.582h-0.529V248.766z"/>
			<path id="XMLID_1177_" style="fill:#246608;" d="M110.157,250.333v-2.791h0.592v2.302h1.132v0.489H110.157z"/>
			<path id="XMLID_1179_" style="fill:#246608;" d="M116.276,250.333v-2.791h0.592v2.791H116.276z"/>
			<path id="XMLID_1181_" style="fill:#246608;" d="M123.957,250.333h-0.752l-1.214-2.111h-0.017
				c0.024,0.373,0.037,0.639,0.037,0.798v1.313h-0.529v-2.791h0.747l1.212,2.09h0.013c-0.019-0.363-0.028-0.619-0.028-0.77v-1.321
				h0.533V250.333z"/>
			<path id="XMLID_1183_" style="fill:#246608;" d="M130.177,250.333h-1.608v-2.791h1.608v0.485h-1.016v0.613h0.945v0.485h-0.945
				v0.72h1.016V250.333z"/>
			<path id="XMLID_1185_" style="fill:#246608;" d="M140.655,248.766h1.107v1.447c-0.18,0.059-0.349,0.1-0.507,0.123
				c-0.158,0.023-0.32,0.035-0.486,0.035c-0.421,0-0.743-0.124-0.965-0.371c-0.222-0.247-0.333-0.603-0.333-1.066
				c0-0.451,0.129-0.802,0.387-1.054c0.258-0.252,0.615-0.378,1.072-0.378c0.286,0,0.563,0.058,0.828,0.172l-0.196,0.474
				c-0.204-0.102-0.416-0.153-0.636-0.153c-0.256,0-0.461,0.086-0.615,0.258c-0.154,0.172-0.23,0.403-0.23,0.693
				c0,0.303,0.062,0.535,0.186,0.694c0.124,0.16,0.305,0.239,0.541,0.239c0.124,0,0.249-0.013,0.377-0.038v-0.582h-0.529V248.766z"
				/>
			<path id="XMLID_1187_" style="fill:#246608;" d="M148.87,248.934c0,0.462-0.114,0.817-0.344,1.065
				c-0.229,0.248-0.558,0.372-0.984,0.372c-0.428,0-0.757-0.124-0.985-0.372c-0.23-0.249-0.344-0.604-0.344-1.069
				c0-0.464,0.114-0.819,0.345-1.064c0.23-0.245,0.559-0.367,0.987-0.367c0.43,0,0.758,0.123,0.984,0.37
				C148.757,248.115,148.87,248.471,148.87,248.934z M146.833,248.934c0,0.312,0.06,0.547,0.178,0.705
				c0.118,0.158,0.295,0.237,0.531,0.237c0.472,0,0.708-0.314,0.708-0.941c0-0.629-0.235-0.943-0.705-0.943
				c-0.235,0-0.412,0.08-0.532,0.238C146.893,248.387,146.833,248.622,146.833,248.934z"/>
			<path id="XMLID_1190_" style="fill:#246608;" d="M154.967,250.333h-1.608v-2.791h1.608v0.485h-1.016v0.613h0.944v0.485h-0.944
				v0.72h1.016V250.333z"/>
			<path id="XMLID_1192_" style="fill:#246608;" d="M161.106,249.558c0,0.252-0.091,0.45-0.272,0.595
				c-0.182,0.146-0.434,0.218-0.757,0.218c-0.298,0-0.561-0.056-0.79-0.168v-0.55c0.188,0.084,0.348,0.143,0.477,0.178
				c0.131,0.034,0.25,0.051,0.358,0.051c0.13,0,0.23-0.025,0.299-0.074c0.069-0.05,0.104-0.124,0.104-0.222
				c0-0.055-0.015-0.104-0.046-0.146c-0.03-0.043-0.075-0.084-0.134-0.123c-0.06-0.039-0.181-0.102-0.362-0.189
				c-0.171-0.08-0.299-0.157-0.384-0.231c-0.085-0.074-0.153-0.16-0.204-0.258c-0.051-0.098-0.076-0.212-0.076-0.344
				c0-0.247,0.083-0.441,0.251-0.583c0.167-0.141,0.398-0.212,0.693-0.212c0.146,0,0.284,0.018,0.416,0.052
				c0.132,0.034,0.27,0.083,0.413,0.145l-0.191,0.46c-0.148-0.062-0.271-0.104-0.369-0.128c-0.098-0.024-0.193-0.037-0.287-0.037
				c-0.112,0-0.198,0.026-0.258,0.079c-0.06,0.052-0.09,0.12-0.09,0.204c0,0.052,0.012,0.098,0.036,0.137
				c0.024,0.039,0.063,0.076,0.116,0.112c0.053,0.036,0.178,0.102,0.375,0.196c0.261,0.125,0.439,0.25,0.536,0.375
				C161.057,249.222,161.106,249.376,161.106,249.558z"/>
			<path id="XMLID_1194_" style="fill:#246608;" d="M172.735,250.333h-0.591v-1.205h-1.104v1.205h-0.593v-2.791h0.593v1.094h1.104
				v-1.094h0.591V250.333z"/>
			<path id="XMLID_1196_" style="fill:#246608;" d="M178.957,250.333h-1.608v-2.791h1.608v0.485h-1.016v0.613h0.944v0.485h-0.944
				v0.72h1.016V250.333z"/>
			<path id="XMLID_1198_" style="fill:#246608;" d="M184.041,249.262v1.071h-0.592v-2.791h0.813c0.379,0,0.66,0.069,0.842,0.207
				c0.182,0.138,0.273,0.348,0.273,0.629c0,0.164-0.046,0.311-0.136,0.438c-0.091,0.128-0.219,0.228-0.384,0.3
				c0.42,0.628,0.693,1.033,0.82,1.216h-0.656l-0.666-1.071H184.041z M184.041,248.781h0.191c0.186,0,0.325-0.031,0.414-0.093
				c0.089-0.063,0.134-0.161,0.134-0.294c0-0.132-0.046-0.226-0.137-0.282c-0.091-0.056-0.232-0.084-0.423-0.084h-0.18V248.781z"/>
			<path id="XMLID_1201_" style="fill:#246608;" d="M191.548,250.333h-1.607v-2.791h1.607v0.485h-1.016v0.613h0.945v0.485h-0.945
				v0.72h1.016V250.333z"/>
		</g>
	</g>
	<g id="XMLID_1203_">
		<path id="XMLID_1204_" style="fill:#883B1D;" d="M138.631,189.109c-0.979,11.291-4.916,17.271-10.389,21.424
			c-1.876,1.422-3.635,2.571-4.89,3.467h38.813c-0.216-0.152-0.433-0.31-0.644-0.477c-2.947-2.327-10.389-7.806-10.531-22.258
			c-0.142-14.449,0.7-25.08,4.495-28.069c3.789-2.99,11.573-4.728,16.693-7.965c5.126-3.235,7.328-7.365,7.328-7.365l-2.543-0.054
			c0,0-4.085,4.159-4.688,4.557c-2.424,1.581-4.284,3.018-4.284,3.018l2.594-7.817l-2.253,0.296c0,0-0.569,5.689-3.044,7.26
			c-2.475,1.567-8.882,4.426-8.882,4.426s2.378-5.442,4.239-7.752c2.02-2.503,3.527-4.651,3.527-4.651l-4.074-1.161
			c0,0-3.163,4.173-6.816,9.985c-3.647,5.815-4.637,8.947-4.637,8.947s-0.745-5.877-1.309-8.036
			c-0.558-2.159-3.027-10.691-3.027-10.691l-1.815,0.359c0,0,0.706,5.727,1.195,10.002c0.358,3.16-0.791,8.603-0.791,8.603
			s-2.327-4.489-5.041-8.904c-1.405-2.282-5.462-8.449-5.462-8.449l-3.072-0.091l7.92,17.512l-13.604-18.508l-1.542,0.498
			l4.899,9.348l-5.405-3.914l-7.078-5.033h-3.357c2.668,1.161,15.601,12.429,21.148,17.703
			C135.889,168.72,139.616,177.815,138.631,189.109z"/>
		<path id="XMLID_1205_" style="fill:#246608;" d="M93.524,132.899c-6.793,0-12.301,5.505-12.301,12.295
			c0,6.788,5.508,12.298,12.301,12.298c6.788,0,12.295-5.511,12.295-12.298C105.82,138.403,100.312,132.899,93.524,132.899z
			 M93.524,153.02c-4.324,0-7.829-3.505-7.829-7.826c0-4.324,3.505-7.826,7.829-7.826c4.318,0,7.823,3.502,7.823,7.826
			C101.347,149.515,97.843,153.02,93.524,153.02z"/>
		<path id="XMLID_1208_" style="fill:#246608;" d="M198.11,132.899c-6.793,0-12.301,5.505-12.301,12.295
			c0,6.788,5.507,12.298,12.301,12.298c6.788,0,12.295-5.511,12.295-12.298C210.405,138.403,204.898,132.899,198.11,132.899z
			 M198.11,153.02c-4.324,0-7.829-3.505-7.829-7.826c0-4.324,3.505-7.826,7.829-7.826c4.319,0,7.823,3.502,7.823,7.826
			C205.933,149.515,202.429,153.02,198.11,153.02z"/>
		<path id="XMLID_1211_" style="fill:#287C09;" d="M222.08,147.99c-0.62,1.12-0.62,1.12-0.62,1.12l-7.94-0.05
			c0.3-1.24,0.49-2.53,0.49-3.87c0-8.78-7.12-15.9-15.9-15.9c-8.78,0-15.9,7.12-15.9,15.9c0,1.27,0.16,2.5,0.44,3.68l-27.84-0.17
			l-30.21-0.18l-10.39-0.06l-5.12-0.03c0.22-1.05,0.33-2.13,0.33-3.24c0-3.19-0.94-6.16-2.56-8.65c-1.29-1.99-3.02-3.68-5.06-4.92
			c-2.41-1.48-5.24-2.33-8.28-2.33c-8.78,0-15.9,7.12-15.9,15.9c0,1.05,0.1,2.06,0.3,3.05h-0.67c0,0-7.28,0.55-12.26-1.69
			c-2.9-1.31-5.01-3.56-4.45-7.41c2.73-18.66,6.09-12.8,18.26-20c8.77-5.19,16.33-18.73,42.67-23.07c25.35-4.19,42.6,1.36,52.17,7.2
			c9.56,5.84,15.68,12.45,19.28,13.07c3.6,0.62,15.61,2.47,19.48,4.82C226.68,129.85,222.7,146.87,222.08,147.99z"/>
		<path id="XMLID_1212_" style="fill:#1E5604;" d="M126.75,116.65l-19.89,19.89c-1.29-1.99-3.02-3.68-5.06-4.92
			c-2.41-1.48-5.24-2.33-8.28-2.33c-8.78,0-15.9,7.12-15.9,15.9c0,1.05,0.1,2.06,0.3,3.05h-0.67c0,0-7.28,0.55-12.26-1.69
			l35.51-34.93l23.38-4.74l0.6,2.05L126.75,116.65z"/>
		<path id="XMLID_1213_" style="fill:#1E5604;" d="M184.07,117.68l-29.26,31.02l-45.72-0.27c0.22-1.05,0.33-2.13,0.33-3.24
			c0-3.19-0.94-6.16-2.56-8.65c-1.29-1.99-3.02-3.68-5.06-4.92l22.68-22.69l10.64-10.64L184.07,117.68z"/>
		<path id="XMLID_4443_" style="fill:#429F00;" d="M77.975,116.097c8.853-5.243,16.483-18.901,43.059-23.288
			c25.592-4.224,42.996,1.38,52.651,7.271c9.65,5.892,15.823,12.568,19.458,13.194c3.635,0.626,15.754,2.484,19.652,4.856
			c3.863,2.353,6.401,5.314,8.034,8.404c0-0.088,0.017-0.174,0.017-0.264c0-5.636-2.128-10.802-5.661-14.913
			c-1.104-7.354-7.641-13.114-15.8-13.768c0.393-1.653,0.609-3.368,0.609-5.127c0-13.351-11.828-24.172-26.428-24.172
			c-0.757,0-1.502,0.043-2.242,0.105c-5.564-7.234-14.747-11.974-25.154-11.974c-8.085,0-15.419,2.879-20.909,7.547
			c-1.655-0.25-3.334-0.415-5.064-0.415c-14.309,0-26.291,8.944-29.734,21.046c-0.33-0.02-0.66-0.048-0.99-0.048
			c-9.689,0-17.547,7.183-17.547,16.042c0,1.698,0.296,3.334,0.836,4.873c-7.675,2.071-13.28,8.551-13.28,16.238
			c0,2.441,0.581,4.751,1.593,6.842C63.745,119.107,67.813,122.108,77.975,116.097z"/>
		<path id="XMLID_1214_" style="fill:#FFFFFF;" d="M96.369,116.066c3.004-3.726,13.712-16.491,34.433-17.652l-4.057,18.241
			L96.369,116.066z"/>
		<polygon id="XMLID_1215_" style="fill:#194403;" points="148.04,125.08 124.6,148.52 114.21,148.46 137.49,124.73 		"/>
		<path id="XMLID_1216_" style="fill:#FFFFFF;" d="M133.772,116.788l1.349-18.494c19.452-0.646,29.21,4.148,35.412,8.082
			c6.464,4.099,13.541,11.302,13.541,11.302L133.772,116.788z"/>
		<path id="XMLID_1217_" style="fill:#FFFFFF;" d="M147.461,125.38h-9.319c-0.358,0-0.649-0.293-0.649-0.651
			c0-0.361,0.29-0.652,0.649-0.652h9.319c0.359,0,0.649,0.29,0.649,0.652C148.11,125.087,147.82,125.38,147.461,125.38z"/>
	</g>
</g>
</svg>
